<svg width="20" height="20" viewBox="0 0 20 20" fill="none" xmlns="http://www.w3.org/2000/svg">
<path d="M19.875 10.8964L10.2917 1.37139C10.1292 1.20889 9.86668 1.20889 9.70418 1.37139L0.125 10.9005C0.0458203 10.9797 0.00417969 11.0838 0 11.1963V18.3338C0 18.563 0.1875 18.7505 0.41668 18.7505C0.52918 18.7505 0.633359 18.7047 0.7125 18.6297L10 9.33389L19.2917 18.6214C19.4542 18.7839 19.7209 18.7797 19.8792 18.6172C19.9542 18.5422 19.9959 18.438 20 18.3297V11.1922C20 11.0797 19.9542 10.9714 19.875 10.8964ZM19.1667 17.3214L10.2917 8.45057C10.125 8.29225 9.86668 8.29225 9.70418 8.45057L0.83332 17.3297V11.3714L10 2.25471L19.1667 11.363V17.3214Z" fill="#5C5C5C"/>
</svg>
